<?xml version="1.0" encoding="UTF-8" standalone="no"?>
<!-- Created with Inkscape (http://www.inkscape.org/) -->

<svg
   xmlns:dc="http://purl.org/dc/elements/1.1/"
   xmlns:cc="http://creativecommons.org/ns#"
   xmlns:rdf="http://www.w3.org/1999/02/22-rdf-syntax-ns#"
   xmlns:svg="http://www.w3.org/2000/svg"
   xmlns="http://www.w3.org/2000/svg"
   xmlns:sodipodi="http://sodipodi.sourceforge.net/DTD/sodipodi-0.dtd"
   xmlns:inkscape="http://www.inkscape.org/namespaces/inkscape"
   width="782.53552"
   height="104.27206"
   viewBox="0 0 782.53552 104.27206"
   id="svg3769"
   version="1.1"
   inkscape:version="0.48.3.1 r9886"
   sodipodi:docname="Region_Stuttgart_Logo.svg">
  <defs
     id="defs3771">
    <clipPath
       clipPathUnits="userSpaceOnUse"
       id="clipPath4015">
      <path
         inkscape:connector-curvature="0"
         d="m 403.79,741.137 146.05,0 0,30.283 -146.05,0 0,-30.283 z"
         id="path4017" />
    </clipPath>
  </defs>
  <sodipodi:namedview
     id="base"
     pagecolor="#ffffff"
     bordercolor="#666666"
     borderopacity="1.0"
     inkscape:pageopacity="0.0"
     inkscape:pageshadow="2"
     inkscape:zoom="0.35"
     inkscape:cx="223.29772"
     inkscape:cy="-8.1549593"
     inkscape:document-units="px"
     inkscape:current-layer="g3838"
     showgrid="false"
     fit-margin-top="0"
     fit-margin-left="0"
     fit-margin-right="0"
     fit-margin-bottom="0"
     inkscape:window-width="505"
     inkscape:window-height="445"
     inkscape:window-x="156"
     inkscape:window-y="156"
     inkscape:window-maximized="0" />
  <metadata
     id="metadata3774">
    <rdf:RDF>
      <cc:Work
         rdf:about="">
        <dc:format>image/svg+xml</dc:format>
        <dc:type
           rdf:resource="http://purl.org/dc/dcmitype/StillImage" />
        <dc:title></dc:title>
      </cc:Work>
    </rdf:RDF>
  </metadata>
  <g
     inkscape:label="Ebene 1"
     inkscape:groupmode="layer"
     id="layer1"
     transform="translate(-126.70228,-419.93519)">
    <g
       id="g3838">
      <g
         transform="matrix(5.5319676,0,0,-5.5319676,-2115.787,4665.3967)"
         id="g4011">
        <g
           id="g4013"
           clip-path="url(#clipPath4015)">
          <g
             id="g4019"
             transform="translate(546.8262,749.4395)">
            <path
               inkscape:connector-curvature="0"
               d="m 0,0 0,3.021 -0.106,0.079 -7.23,0 0,14.055 -0.106,0.105 -4.571,0 -0.108,-0.105 0,-17.155 0.108,-0.106 11.907,0 L 0,0 z m -13.821,-0.106 0.106,0.106 -5.955,17.155 -0.106,0.105 -4.89,0 -0.107,-0.105 L -30.408,0 l 0.107,-0.106 3.537,0 0.709,2.258 6.648,0 0.694,-2.258 4.892,0 z m -6.566,5.401 -4.681,0 2.131,6.777 c 0.059,0.197 0.111,0.434 0.157,0.691 l 0.082,0 2.311,-7.468 z m -11.866,-5.401 0.161,0.159 0,17.102 -0.107,0.105 -4.437,0 -0.108,-0.105 0,-17.102 0.162,-0.159 4.329,0 z m -6.739,0 0.159,0.159 0,2.914 -0.159,0.16 -7.123,0 0,0.052 c 0.159,0.132 0.373,0.477 0.479,0.688 l 6.378,11.488 c 0.213,0.423 0.32,0.741 0.32,1.164 l 0,0.636 -0.107,0.105 -12.546,0 -0.107,-0.105 0,-3.021 0.107,-0.105 6.751,0 0,-0.054 c -0.186,-0.185 -0.345,-0.45 -0.533,-0.793 L -51.485,1.907 C -51.751,1.429 -51.91,1.217 -51.91,0.636 l 0,-0.583 0.159,-0.159 12.759,0 z m -14.832,0 0,17.261 -0.106,0.105 -3.352,0 -0.106,-0.105 0,-9.316 -0.052,0 c -0.081,0.185 -0.213,0.318 -0.479,0.636 l -6.749,7.938 c -0.506,0.582 -0.851,0.847 -1.914,0.847 l -1.17,0 -0.106,-0.105 0,-17.155 0.106,-0.106 3.352,0 0.105,0.106 0,9.315 0.054,0 c 0.186,-0.317 0.345,-0.423 0.612,-0.74 l 6.987,-7.939 c 0.558,-0.636 0.719,-0.742 1.063,-0.742 l 1.755,0 z m -17.197,0 0.159,0.159 0,17.102 -0.106,0.105 -4.437,0 -0.106,-0.105 0,-17.102 0.159,-0.159 4.331,0 z m -11.535,0 5.529,17.208 -0.106,0.158 -3.75,0 -3.216,-10.907 C -84.275,5.786 -84.411,5.262 -84.5,4.856 l -0.069,0 -3.622,12.404 -4.89,0 -0.106,-0.105 5.528,-17.261 5.103,0 z m -10.525,8.922 c 0,5.744 -3.588,9.186 -8.932,9.186 -5.342,0 -8.93,-3.442 -8.93,-9.186 l 0,-0.45 c 0,-5.745 3.588,-9.213 8.93,-9.213 5.344,0 8.932,3.468 8.932,9.213 l 0,0.45 z m -4.997,-0.45 c 0,-4.183 -1.329,-6.222 -3.935,-6.222 -2.604,0 -3.934,2.145 -3.934,6.222 l 0,0.45 c 0,4.077 1.33,6.221 3.934,6.221 2.606,0 3.935,-2.144 3.935,-6.221 l 0,-0.45 z m -18.713,-8.472 4.784,0 0,0.106 -2.764,5.188 c -0.345,0.636 -0.665,1.086 -0.983,1.35 2.392,0.927 3.322,2.94 3.322,4.792 l 0,0.53 c 0,4.659 -4.144,5.545 -8.293,5.545 -3.765,0 -5.21,-0.145 -5.21,-0.145 l -0.107,-0.105 0,-17.155 0.107,-0.106 4.572,0 0.107,0.106 0,5.248 1.275,0 c 0.319,0 0.505,-0.213 0.745,-0.636 l 2.445,-4.718 z m -0.425,11.013 c 0,-2.064 -0.77,-2.965 -2.765,-2.965 l -1.275,0 0,6.725 1.275,0 c 2.02,0 2.765,-1.112 2.765,-3.124 l 0,-0.636 z m -10.526,0.212 0,0.635 c 0,4.659 -4.033,5.646 -8.187,5.646 -4.153,0 -5.423,-0.14 -5.423,-0.14 l -0.105,-0.105 0,-17.155 0.105,-0.106 4.572,0 0.107,0.106 0,5.401 1.488,0 c 5.13,0 7.443,2.117 7.443,5.718 m -4.891,-0.106 c 0,-2.065 -0.664,-3.071 -2.658,-3.071 l -1.382,0 0,6.725 1.275,0 c 2.021,0 2.765,-1.112 2.765,-3.124 l 0,-0.53 z"
               style="fill:#00894d;fill-opacity:1;fill-rule:nonzero;stroke:none"
               id="path4021" />
          </g>
        </g>
      </g>
    </g>
  </g>
</svg>
